<svg width="38" height="38" viewBox="0 0 38 38" fill="none" xmlns="http://www.w3.org/2000/svg">
<g clip-path="url(#clip0_1_878)">
<path fill-rule="evenodd" clip-rule="evenodd" d="M1.64008e-05 29.7667V8.23335C-0.00214497 7.15153 0.209341 6.07992 0.622339 5.08003C1.03534 4.08014 1.64172 3.17165 2.40668 2.40668C3.17165 1.64172 4.08014 1.03534 5.08003 0.622339C6.07992 0.209341 7.15153 -0.00214497 8.23335 1.64008e-05H29.7667C30.8485 -0.00214497 31.9201 0.209341 32.92 0.622339C33.9199 1.03534 34.8284 1.64172 35.5933 2.40668C36.3583 3.17165 36.9647 4.08014 37.3777 5.08003C37.7907 6.07992 38.0022 7.15153 38 8.23335V29.7667C38.0022 30.8485 37.7907 31.9201 37.3777 32.92C36.9647 33.9199 36.3583 34.8284 35.5933 35.5933C34.8284 36.3583 33.9199 36.9647 32.92 37.3777C31.9201 37.7907 30.8485 38.0022 29.7667 38H8.23335C6.05004 37.999 3.95645 37.1312 2.41262 35.5874C0.868785 34.0436 0.00102338 31.95 1.64008e-05 29.7667Z" fill="url(#paint0_linear_1_878)"/>
<path fill-rule="evenodd" clip-rule="evenodd" d="M31.35 27.2967C31.0605 27.4615 30.7332 27.5488 30.4 27.55H7.60002C7.26628 27.553 6.93797 27.4654 6.65002 27.2967L14.25 19.6967L16.1184 21.565C16.4995 21.932 16.9519 22.2168 17.4476 22.402C17.9432 22.5872 18.4716 22.6688 19 22.6417C19.5281 22.6659 20.0557 22.583 20.5509 22.398C21.0462 22.2129 21.4988 21.9296 21.8817 21.565L23.75 19.6967L31.35 27.2967ZM32.015 26.6L24.415 19L32.015 11.4C32.1799 11.6896 32.2671 12.0168 32.2684 12.35V25.65C32.2979 25.9866 32.2082 26.3228 32.015 26.6ZM5.95336 26.6C5.78851 26.3104 5.70124 25.9832 5.70002 25.65V12.35C5.69705 12.0163 5.7846 11.688 5.95336 11.4L13.5534 19L5.95336 26.6ZM31.35 10.7033L21.185 20.8683C20.8956 21.1465 20.5527 21.3629 20.1771 21.5044C19.8015 21.646 19.401 21.7097 19 21.6917C18.599 21.7097 18.1986 21.646 17.823 21.5044C17.4474 21.3629 17.1044 21.1465 16.815 20.8683L6.65002 10.7033C6.93959 10.5385 7.26682 10.4512 7.60002 10.45H30.4C30.7332 10.4512 31.0605 10.5385 31.35 10.7033Z" fill="white"/>
</g>
<defs>
<linearGradient id="paint0_linear_1_878" x1="19" y1="1.64008e-05" x2="19" y2="38.0003" gradientUnits="userSpaceOnUse">
<stop stop-color="#1D6FF2"/>
<stop offset="1" stop-color="#1AC8FC"/>
</linearGradient>
<clipPath id="clip0_1_878">
<rect width="38" height="38" fill="white"/>
</clipPath>
</defs>
</svg>
