<svg width="38" height="38" viewBox="0 0 38 38" fill="none" xmlns="http://www.w3.org/2000/svg">
<g clip-path="url(#clip0_1_866)">
<path d="M35.8889 0H2.11111C0.945177 0 0 0.945177 0 2.11111V35.8889C0 37.0548 0.945177 38 2.11111 38H35.8889C37.0548 38 38 37.0548 38 35.8889V2.11111C38 0.945177 37.0548 0 35.8889 0Z" fill="#117EB8"/>
<path fill-rule="evenodd" clip-rule="evenodd" d="M6.9345 14.6976H12.0133V31.0386H6.9345V14.6976ZM9.47469 6.57453C11.0987 6.57453 12.4181 7.89398 12.4181 9.51795C12.4181 11.1435 11.0987 12.4635 9.47469 12.4635C9.08333 12.4709 8.69441 12.4002 8.33068 12.2556C7.96695 12.1109 7.63571 11.8952 7.35631 11.6211C7.07692 11.3469 6.85498 11.0198 6.70348 10.6589C6.55197 10.2979 6.47394 9.91044 6.47394 9.519C6.47394 9.12757 6.55197 8.74006 6.70348 8.37914C6.85498 8.01821 7.07692 7.69111 7.35631 7.41696C7.63571 7.1428 7.96695 6.9271 8.33068 6.78245C8.69441 6.63781 9.08333 6.56712 9.47469 6.57453ZM15.199 14.697H20.0704V16.9301H20.1379C20.8161 15.6454 22.4728 14.2912 24.9433 14.2912C30.086 14.2912 31.036 17.6758 31.036 22.0759V31.0386H25.9604V23.0919C25.9604 21.1971 25.9255 18.7593 23.3215 18.7593C20.6789 18.7593 20.273 20.8235 20.273 22.9552V31.0386H15.1984V14.6976L15.199 14.697Z" fill="white"/>
</g>
<defs>
<clipPath id="clip0_1_866">
<rect width="38" height="38" fill="white"/>
</clipPath>
</defs>
</svg>
