<svg width="38" height="38" viewBox="0 0 38 38" fill="none" xmlns="http://www.w3.org/2000/svg">
<g clip-path="url(#clip0_1_858)">
<path d="M9.63598 37.8655C8.16617 37.8491 6.71018 37.5795 5.33192 37.0686C4.32546 36.6966 3.41486 36.1043 2.66671 35.3352C1.89544 34.5885 1.30231 33.6777 0.931372 32.6703C0.420888 31.2921 0.151695 29.8362 0.135608 28.3666C0.0227255 25.9234 0 25.1906 0 19C0 12.8094 0.0249608 12.0792 0.13449 9.63412C0.15253 8.16507 0.422054 6.70997 0.931372 5.33192C1.30412 4.32529 1.89641 3.41433 2.66522 2.66522C3.41245 1.89465 4.32347 1.30207 5.3308 0.931372C6.70906 0.420465 8.16505 0.150893 9.63486 0.13449C12.0788 0.0227255 12.8127 0 19 0C25.1873 0 25.9208 0.0249608 28.3659 0.13449C29.8353 0.152403 31.2908 0.421929 32.6692 0.931372C33.6761 1.30256 34.5869 1.89493 35.3344 2.66484C36.1046 3.41264 36.6972 4.32365 37.0686 5.3308C37.5797 6.70904 37.8494 8.16503 37.8659 9.63486C37.9776 12.0799 38.0004 12.812 38.0004 19.0007C38.0004 25.1895 37.9776 25.9216 37.8659 28.3666C37.8481 29.8362 37.5785 31.2919 37.0686 32.6703C36.683 33.6699 36.0923 34.5777 35.3345 35.3352C34.5768 36.0927 33.6689 36.6832 32.6692 37.0686C31.291 37.5797 29.835 37.8493 28.3651 37.8659C25.9223 37.9776 25.188 38.0004 18.9993 38.0004C12.8105 38.0004 12.0784 37.9788 9.63561 37.8659" fill="url(#paint0_radial_1_858)"/>
<path d="M9.63598 37.8655C8.16617 37.8491 6.71018 37.5795 5.33192 37.0686C4.32546 36.6966 3.41486 36.1043 2.66671 35.3352C1.89544 34.5885 1.30231 33.6777 0.931372 32.6703C0.420888 31.2921 0.151695 29.8362 0.135608 28.3666C0.0227255 25.9234 0 25.1906 0 19C0 12.8094 0.0249608 12.0792 0.13449 9.63412C0.15253 8.16507 0.422054 6.70997 0.931372 5.33192C1.30412 4.32529 1.89641 3.41433 2.66522 2.66522C3.41245 1.89465 4.32347 1.30207 5.3308 0.931372C6.70906 0.420465 8.16505 0.150893 9.63486 0.13449C12.0788 0.0227255 12.8127 0 19 0C25.1873 0 25.9208 0.0249608 28.3659 0.13449C29.8353 0.152403 31.2908 0.421929 32.6692 0.931372C33.6761 1.30256 34.5869 1.89493 35.3344 2.66484C36.1046 3.41264 36.6972 4.32365 37.0686 5.3308C37.5797 6.70904 37.8494 8.16503 37.8659 9.63486C37.9776 12.0799 38.0004 12.812 38.0004 19.0007C38.0004 25.1895 37.9776 25.9216 37.8659 28.3666C37.8481 29.8362 37.5785 31.2919 37.0686 32.6703C36.683 33.6699 36.0923 34.5777 35.3345 35.3352C34.5768 36.0927 33.6689 36.6832 32.6692 37.0686C31.291 37.5797 29.835 37.8493 28.3651 37.8659C25.9223 37.9776 25.188 38.0004 18.9993 38.0004C12.8105 38.0004 12.0784 37.9788 9.63561 37.8659" fill="url(#paint1_radial_1_858)"/>
<path d="M14.3346 19.0808C14.3346 18.1501 14.6107 17.2403 15.1278 16.4665C15.645 15.6927 16.38 15.0896 17.2399 14.7336C18.0998 14.3775 19.046 14.2844 19.9588 14.4661C20.8716 14.6477 21.71 15.096 22.368 15.7542C23.0261 16.4124 23.4741 17.2509 23.6556 18.1638C23.837 19.0766 23.7437 20.0228 23.3874 20.8826C23.0312 21.7424 22.4279 22.4773 21.654 22.9942C20.88 23.5112 19.9702 23.787 19.0395 23.7869C17.7915 23.7867 16.5948 23.2908 15.7124 22.4082C14.8301 21.5257 14.3345 20.3288 14.3346 19.0808ZM11.7904 19.0808C11.7904 20.5146 12.2156 21.9161 13.0121 23.1082C13.8086 24.3003 14.9408 25.2294 16.2654 25.7781C17.59 26.3268 19.0475 26.4703 20.4537 26.1906C21.8599 25.9109 23.1515 25.2205 24.1653 24.2067C25.1791 23.1929 25.8695 21.9012 26.1493 20.4951C26.429 19.0889 26.2854 17.6313 25.7367 16.3067C25.1881 14.9821 24.2589 13.85 23.0668 13.0535C21.8747 12.2569 20.4732 11.8318 19.0395 11.8318C18.0875 11.8317 17.1449 12.0192 16.2653 12.3835C15.3858 12.7478 14.5867 13.2817 13.9135 13.9549C13.2404 14.628 12.7064 15.4272 12.3421 16.3067C11.9778 17.1862 11.7904 18.1289 11.7904 19.0808ZM24.8814 11.5445C24.8813 11.8796 24.9805 12.2071 25.1665 12.4858C25.3525 12.7644 25.617 12.9817 25.9265 13.11C26.2359 13.2384 26.5765 13.2721 26.9051 13.2069C27.2338 13.1417 27.5357 12.9804 27.7727 12.7436C28.0097 12.5068 28.1712 12.2051 28.2367 11.8765C28.3022 11.5479 28.2688 11.2073 28.1407 10.8977C28.0126 10.5881 27.7956 10.3235 27.5171 10.1372C27.2387 9.95096 26.9112 9.85146 26.5761 9.85131C26.1271 9.85151 25.6964 10.0299 25.3788 10.3474C25.0612 10.6649 24.8826 11.0955 24.8822 11.5445M13.3369 30.5721C12.4417 30.5623 11.5549 30.3985 10.7152 30.0878C10.1063 29.8531 9.55333 29.4935 9.0918 29.0322C8.63027 28.5708 8.27045 28.018 8.0355 27.4092C7.72471 26.5696 7.56088 25.6827 7.55119 24.7875C7.48264 23.2996 7.46923 22.8525 7.46923 19.0827C7.46923 15.3129 7.48413 14.8669 7.55119 13.3775C7.56205 12.4824 7.72584 11.5957 8.0355 10.7559C8.27018 10.1468 8.62989 9.59361 9.09145 9.13206C9.553 8.6705 10.1062 8.31079 10.7152 8.07611C11.5548 7.76533 12.4417 7.6015 13.3369 7.5918C14.8248 7.52325 15.2719 7.50984 19.0402 7.50984C22.8086 7.50984 23.256 7.52437 24.7454 7.59218C25.6405 7.60304 26.5272 7.76683 27.3671 8.07649C27.9762 8.31118 28.5293 8.6709 28.9908 9.13245C29.4524 9.59401 29.8121 10.1471 30.0468 10.7562C30.3576 11.5958 30.5214 12.4827 30.5311 13.3779C30.5997 14.8681 30.6131 15.3129 30.6131 19.0831C30.6131 22.8533 30.5993 23.2988 30.5311 24.7883C30.5207 25.6834 30.3569 26.5701 30.0468 27.4099C29.8119 28.0187 29.452 28.5716 28.9905 29.0329C28.529 29.4943 27.976 29.8538 27.3671 30.0885C26.5275 30.3993 25.6406 30.5632 24.7454 30.5729C23.2575 30.6414 22.8104 30.6548 19.0402 30.6548C15.27 30.6548 14.8245 30.641 13.3369 30.5729M13.2199 5.0499C12.0485 5.07293 10.8896 5.29463 9.79244 5.70558C8.85455 6.06821 8.00279 6.62282 7.29175 7.33385C6.58072 8.04489 6.02611 8.89665 5.66348 9.83454C5.25259 10.9317 5.03089 12.0906 5.0078 13.262C4.93813 14.7671 4.92249 15.2484 4.92249 19.0823C4.92249 22.9162 4.93851 23.3972 5.0078 24.9027C5.03088 26.074 5.25258 27.233 5.66348 28.3301C6.02613 29.268 6.58075 30.1197 7.29178 30.8308C8.00281 31.5418 8.85456 32.0964 9.79244 32.4591C10.8896 32.8698 12.0486 33.0915 13.2199 33.1148C14.7257 33.1833 15.2063 33.2001 19.0402 33.2001C22.8741 33.2001 23.3551 33.1841 24.8606 33.1148C26.0319 33.0916 27.1908 32.8699 28.288 32.4591C29.2259 32.0964 30.0776 31.5418 30.7887 30.8308C31.4997 30.1197 32.0543 29.268 32.417 28.3301C32.8284 27.2331 33.0501 26.0741 33.0727 24.9027C33.1412 23.3965 33.1568 22.9162 33.1568 19.0823C33.1568 15.2484 33.1408 14.7675 33.0727 13.262C33.0496 12.0906 32.8279 10.9317 32.417 9.83454C32.0543 8.89683 31.4999 8.0452 30.789 7.33418C30.0782 6.62317 29.2267 6.06846 28.2891 5.70558C27.1921 5.29437 26.0331 5.07266 24.8617 5.0499C23.3562 4.98098 22.8752 4.96458 19.0421 4.96458C15.2089 4.96458 14.7269 4.98061 13.2206 5.0499" fill="white"/>
</g>
<defs>
<radialGradient id="paint0_radial_1_858" cx="0" cy="0" r="1" gradientUnits="userSpaceOnUse" gradientTransform="translate(2.45919 37.1677) scale(48.2458)">
<stop offset="0.09" stop-color="#FA8F21"/>
<stop offset="0.78" stop-color="#D82D7E"/>
</radialGradient>
<radialGradient id="paint1_radial_1_858" cx="0" cy="0" r="1" gradientUnits="userSpaceOnUse" gradientTransform="translate(26.3213 35.9472) scale(42.4568)">
<stop offset="0.64" stop-color="#8C3AAA" stop-opacity="0"/>
<stop offset="1" stop-color="#8C3AAA"/>
</radialGradient>
<clipPath id="clip0_1_858">
<rect width="38" height="38" fill="white"/>
</clipPath>
</defs>
</svg>
